#!OML:ASF E:\motion texture\Top Level 1\Subject 1\Session 1\male.ASF
:FULLY-SPECIFIED
:DEGREES
207
root 2.64653 17.4652 3.74968 372.166 -85.996 -366.965
lowerback -1.40568 -5.84941 -2.2344
upperback -3.40788 -7.8346 4.29356
thorax -1.83363 -3.87277 5.64215
lowerneck -19.6729 -1.28773 -3.80795
upperneck 14.6176 -1.54664 4.47652
head 7.80542 -0.506609 1.92116
rclavicle -1.13456e-013 6.36111e-015
rhumerus -54.423 -1.62356 -80.0081
rradius 53.6352
rwrist -8.17846
rhand -9.79019 -10.251
rfingers 7.12502
rthumb 16.1857 -39.5953
lclavicle -1.13456e-013 6.36111e-015
lhumerus -27.4736 -22.1675 95.1446
lradius 58.0891
lwrist 3.66156
lhand -8.53981 9.58707
lfingers 7.12502
lthumb 17.3894 38.8292
rfemur -37.8924 -6.44828 22.5304
rtibia 44.3751
rfoot 178.565 178.529
rtoes 16.2953
lfemur 7.60172 -4.61246 -17.2437
ltibia 30.978
lfoot 365.479 -14.2298
ltoes -22.0948
208
root 2.46336 17.445 3.7232 382.574 -86.1937 -377.44
lowerback -1.34561 -5.47091 -1.52879
upperback -3.41747 -7.3313 4.46204
thorax -1.99743 -3.6326 5.44887
lowerneck -19.8574 -1.31719 -3.86466
upperneck 14.7666 -1.51706 4.21756
head 7.88317 -0.519077 1.8488
rclavicle -9.26834e-014 1.51076e-014
rhumerus -53.1273 -0.879021 -81.563
rradius 55.6682
rwrist -8.42255
rhand -9.61611 -10.1658
rfingers 7.12502
rthumb 16.3533 -39.4963
lclavicle -9.26834e-014 1.51076e-014
lhumerus -29.0075 -22.1419 95.8859
lradius 57.1139
lwrist 3.31126
lhand -8.26006 9.5166
lfingers 7.12502
lthumb 17.6586 38.7347
rfemur -36.3025 -5.83331 23.5165
rtibia 43.0335
rfoot 176.597 178.318
rtoes 18.5078
lfemur 5.90617 -3.8763 -16.0232
ltibia 34.1946
lfoot 369.087 -14.1823
ltoes -20.3935
209
root 2.29103 17.43 3.70033 396.905 -86.3192 -391.926
lowerback -1.15722 -5.03612 -0.644181
upperback -3.35995 -6.75049 4.65208
thorax -2.18028 -3.35881 5.1842
lowerneck -20.0245 -1.32614 -3.90283
upperneck 14.8166 -1.46185 3.96148
head 7.92392 -0.518656 1.77662
rclavicle -5.98839e-014 3.97569e-014
rhumerus -51.5976 0.0899838 -83.1814
rradius 57.8322
rwrist -8.46453
rhand -9.40346 -10.001
rfingers 7.12502
rthumb 16.558 -39.3146
lclavicle -5.98839e-014 3.97569e-014
lhumerus -30.4839 -21.9972 96.4992
lradius 56.0598
lwrist 2.79994
lhand -8.033 9.37007
lfingers 7.12502
lthumb 17.8771 38.5684
rfemur -34.8751 -5.03882 24.6786
rtibia 41.9404
rfoot 175.158 178.034
rtoes 19.9363
lfemur 4.01239 -3.03416 -14.6944
ltibia 37.7999
lfoot 372.729 -14.0648
ltoes -18.1533
210
root 2.12864 17.4193 3.68044 413.482 -86.2108 -408.727
lowerback -0.874376 -4.57253 0.360979
upperback -3.2334 -6.12648 4.85021
thorax -2.34754 -3.06803 4.85867
lowerneck -20.1744 -1.3107 -3.91101
upperneck 14.7557 -1.38031 3.71167
head 7.92357 -0.503655 1.70409
rclavicle 2.61153e-014 -4.69132e-014
rhumerus -49.8184 1.2988 -84.8258
rradius 60.1139
rwrist -8.32504
rhand -9.13242 -9.78204
rfingers 7.12502
rthumb 16.819 -39.0736
lclavicle 2.61153e-014 -4.69132e-014
lhumerus -31.8902 -21.7097 96.9581
lradius 54.9351
lwrist 2.10992
lhand -7.87997 9.1716
lfingers 7.12502
lthumb 18.0243 38.3564
rfemur -33.5817 -4.0901 25.9314
rtibia 41.128
rfoot 174.076 177.765
rtoes 20.6663
lfemur 1.92911 -2.15176 -13.3386
ltibia 41.7946
lfoot 376.033 -14.0363
ltoes -15.6382
211
root 1.97435 17.4119 3.66261 428.771 -85.8062 -424.296
lowerback -0.53499 -4.10953 1.40723
upperback -3.04493 -5.49791 5.04128
thorax -2.47202 -2.77757 4.49577
lowerneck -20.2673 -1.26835 -3.87415
upperneck 14.5797 -1.27505 3.46253
head 7.87405 -0.475126 1.62667
rclavicle 4.30866e-014 1.98785e-014
rhumerus -47.7984 2.75284 -86.4478
rradius 62.4857
rwrist -8.04371
rhand -8.85885 -9.64401
rfingers 7.12502
rthumb 17.0823 -38.913
lclavicle 4.30866e-014 1.98785e-014
lhumerus -33.248 -21.2641 97.2567
lradius 53.7605
lwrist 1.26399
lhand -7.78921 8.9599
lfingers 7.12502
lthumb 18.1117 38.1367
rfemur -32.373 -3.0393 27.1862
rtibia 40.5437
rfoot 173.22 177.542
rtoes 20.9131
lfemur -0.335393 -1.28722 -12.0337
ltibia 46.1728
lfoot 378.642 -14.1596
ltoes -13.0284
